PathFileType        4      (X/Y/Z)      C:\Users\ibrah\OneDrive - KTH\Model Validation - Orthoload\rmr-solver-1.0 - original\rmr-solver-1.0\ExperimentalData\S8R\trc\transformed_MSbfkg1.trc         
DataRate	CameraRate	NumFrames	NumMarkers	Units	OrigDataRate	OrigDataStartFrame	OrigNumFrames
50.0	50.0	7	27	mm	50.0	50	398
Frame#	Time	IJ			PX			C7			T8			SC			AA			TS			AI			PC			ACv			ACd			GH			EM			EL			EM2			EL2			US			RS			US2			RS2			MCP2			MCP5			SCREWAA			SCREWTS			SCREWAI			ACvloc			ACdloc			
		X1	Y1	Z1	X2	Y2	Z2	X3	Y3	Z3	X4	Y4	Z4	X5	Y5	Z5	X6	Y6	Z6	X7	Y7	Z7	X8	Y8	Z8	X9	Y9	Z9	X10	Y10	Z10	X11	Y11	Z11	X12	Y12	Z12	X13	Y13	Z13	X14	Y14	Z14	X15	Y15	Z15	X16	Y16	Z16	X17	Y17	Z17	X18	Y18	Z18	X19	Y19	Z19	X20	Y20	Z20	X21	Y21	Z21	X22	Y22	Z22	X23	Y23	Z23	X24	Y24	Z24	X25	Y25	Z25	X26	Y26	Z26	X27	Y27	Z27	
50	0.98	36.07249203395212	-6.60968754668732	2.851409930261405	71.74243888968137	-151.4069581918238	8.58503693973256	-82.15075085606344	94.37573429157796	-9.68408340024482	-171.5012001024782	-96.97813214907755	-20.94511961532429	28.02312628279168	3.249789939150879	26.20293416330575	-89.05487391071574	20.63941966751864	181.9652384842571	-133.5484572030564	32.75634912090572	93.91417820490805	-172.7446753454433	-126.7559968415177	68.70696676281518	-18.07418732066001	13.40063881146932	137.7483011629924	-59.58834814354933	50.21874479402668	166.3406373373961	-59.58834814354933	50.21874479402668	166.3406373373961	-93.32600399870847	-20.83254080234878	183.3225063358229	-158.3166667357404	-302.3617714758474	213.6908881610096	-156.7715257556288	-283.2712987557474	283.036192365849													-141.4208056978642	-511.7222110359862	308.4460732230964	-188.0628695957223	-504.123171516541	343.0083636748153																						
51	1.0	38.11873189987601	-7.236549993929212	3.481181693576259	72.85257435141055	-152.258360765315	9.28804606561273	-79.42032269136669	94.49841974877853	-9.420347964524266	-169.9406128235959	-96.28320859711972	-21.04506900589456	30.05314756268667	2.666383475980698	26.80853353863815	-87.30678517700098	21.43231833400093	181.9194223644729	-130.8933154219806	34.25803820569233	93.51353481601704	-171.7828470261068	-124.7262921589907	67.6426081296438	-16.0372035102217	13.43002331407506	138.2990638567811	-57.3530174612152	50.68773379622949	166.6093175615027	-57.3530174612152	50.68773379622949	166.6093175615027	-92.20157606022823	-19.27057079469227	183.5498219769599	-163.8353372141071	-299.3068454640975	212.855694889128	-162.7178720134317	-280.3102068801742	282.2371957886778													-153.3599568000491	-509.1216501410046	307.8471542468538	-200.0023931116264	-500.3705207732667	342.1338242171434																						
52	1.02	40.13634447268682	-7.883252518153146	4.138162938179302	73.91500219490213	-153.1264129769738	10.03010458791046	-76.69684054524691	94.60867426719352	-9.170922857176741	-168.3976321694627	-95.58265223068045	-21.19225494823228	32.047529268675	2.064413967670538	27.43829409353208	-85.61599335461281	22.21739520862619	181.8343087549808	-128.260535003174	35.72879156436129	93.06890262603345	-170.8133217788972	-122.7098989628903	66.52950143624108	-14.05928369642803	13.44664123726544	138.8307713570769	-55.17938034365356	51.14233290473324	166.8463273106711	-55.17938034365356	51.14233290473324	166.8463273106711	-91.10305688981474	-17.70303418876032	183.7768272496113	-169.2951127259263	-296.0994343771785	211.9947046687361	-168.6112893435416	-277.1712587480797	281.4023479278425													-165.2539929804401	-506.1854089036291	307.1743351787229	-211.8365714058812	-496.2713124955138	341.2196224746502																						
53	1.04	42.12292232325056	-8.550680906976753	4.817659553204195	74.92449116146355	-154.0123630147068	10.80510986219748	-73.98071799814463	94.7077003267453	-8.93433696252578	-166.8767199558111	-94.87313462375378	-21.37946997866631	34.00540177647616	1.443432319480648	28.08785552894231	-83.97318370016617	22.99416050059843	181.7148887000875	-125.6495478339019	37.16545756258777	92.5898089396186	-169.8338560064603	-120.7118571057463	65.38217829444757	-12.13563677022705	13.45103990104816	139.3421285185806	-53.06054052818354	51.5826193695227	167.0537829442794	-53.06054052818354	51.5826193695227	167.0537829442794	-90.01767477482967	-16.13419874648521	184.0058786574776	-174.6589496949888	-292.7532532720028	211.1138728578931	-174.4115158551797	-273.8677770262676	280.5373037855171													-177.0508688931903	-502.9253764067332	306.44650868428	-223.5187994197457	-491.8400048142316	340.2783810530491																						
54	1.06	44.07717960415845	-9.240035162202226	5.514294940688765	75.87762887578158	-154.9175884103905	11.6064183318682	-71.27172750584246	94.79577159577606	-8.709954029479407	-165.3807665444642	-94.15272316828008	-21.60023266481351	35.92696893533432	0.8026379201917471	28.75216154523822	-82.36886094100268	23.76207067493812	181.5659716185246	-123.0592103700027	38.56514946986634	92.0850583604152	-168.8426715261587	-118.7370889442186	64.21461550373603	-10.2608180139326	13.44343894143779	139.8321473586718	-50.98902974269822	52.00857056412848	167.2337218660595	-50.98902974269822	52.00857056412848	167.2337218660595	-88.93346655184212	-14.56899367393411	184.2374299057228	-179.8928528073517	-289.2844074136185	210.2193487006477	-180.081717397445	-270.4155606437394	279.6480496551704													-188.7027221485321	-499.3572582482914	305.6835040212696	-235.0078513062653	-487.0950503463889	339.3222346778749																						
55	1.08	45.99855928226501	-9.952696269008106	6.221994669984985	76.772702362566	-155.8434119670807	12.42700003215613	-68.5695881317007	94.87213974924974	-8.498343275400451	-163.91130813573	-93.42118853672606	-21.84928065078198	37.813036607233	0.1410055365164697	29.42542117628982	-80.79413940820251	24.52056334966743	181.3917841246827	-120.4883567064135	39.92511082958292	91.56219432744344	-167.8386925459883	-116.7905701923546	63.03975725379712	-8.42939339156917	13.4238278464189	140.2999426112103	-48.95760219955701	52.42011731020994	167.387748905904	-48.95760219955701	52.42011731020994	167.387748905904	-87.84010131784218	-13.01294193709451	184.4697646569756	-184.9667931125135	-285.7110436026334	209.3177544721631	-185.5892760263125	-266.8323967511761	278.7411336187413													-200.1663439410476	-495.5000616544796	304.9054939403128	-246.2677954586613	-482.0583238897823	338.3629205784921																						
56	1.1	47.88682160358433	-10.69006061597014	6.934010545162268	77.60949536252969	-156.7909066912668	13.2596167312889	-65.87453484053495	94.93503414946008	-8.301552549223585	-162.4688251591103	-92.6801808547326	-22.12291836677124	39.66453812188188	-0.5425510219000245	30.10111350548306	-79.24142028918916	25.26912668552275	181.195634449985	-117.9363159912115	41.24263563301891	91.02708010327983	-166.8217543215772	-114.8774367901725	61.86914208794381	-6.636536720098562	13.39210481523932	140.7445232420094	-46.95993522040075	52.81723347646807	167.5167304524634	-46.95993522040075	52.81723347646807	167.5167304524634	-86.72953199842291	-11.4719864409254	184.6989512862555	-189.8553942695959	-282.0528939759874	208.4163396543895	-190.9063378928351	-263.1375320174878	277.8237860634079													-211.4034817932285	-491.37552899919	304.1323191883415	-257.2677351513243	-476.7544882843035	337.4118082494846																						
